<svg xmlns="http://www.w3.org/2000/svg" viewBox="0 0 17.14 1.75"><defs><style>.cls-1{stroke:#000;stroke-miterlimit:10;stroke-width:0.75px;}</style></defs><g id="Warstwa_2" data-name="Warstwa 2"><g id="Warstwa_1-2" data-name="Warstwa 1"><path class="cls-1" d="M10.47.48c1.28-.06,2.45,0,3.61,0,.67,0,1.35-.07,2-.07a.58.58,0,0,1,.66.49c0,.22-.08.32-.22.26-.63-.24-1.22.1-1.83.12-1.08,0-2.15,0-3.22-.07-.65,0-1.31-.05-2-.05-1,0-2,.43-3,.15a7.27,7.27,0,0,0-2.79-.1c-.82.1-1.64-.05-2.45,0a1,1,0,0,1-.51,0C.57,1.15.32,1.25.39.92S.49.44.81.45s.42.06.63,0a34.2,34.2,0,0,0,4.05,0,7.92,7.92,0,0,1,1.82.1,5.71,5.71,0,0,0,1.43,0A4.1,4.1,0,0,1,10.47.48Z"/></g></g></svg>