<svg xmlns="http://www.w3.org/2000/svg" viewBox="0 0 16.37 16.69"><defs><style>.cls-1{stroke:#000;stroke-miterlimit:10;}</style></defs><g id="Warstwa_2" data-name="Warstwa 2"><g id="Warstwa_1-2" data-name="Warstwa 1"><path class="cls-1" d="M7.94,16.09c-.1-.06-.09-.16-.08-.25.06-1.61.07-3.22,0-4.83,0-.72,0-1.44.07-2.16,0-.32,0-.29-.31-.28a12,12,0,0,1-1.69-.06,12,12,0,0,0-2.16,0c-.65,0-1.3,0-1.95,0-.41,0-.82,0-1.23,0-.1,0-.1,0-.1-.11A.29.29,0,0,1,.82,8.1c1.1.09,2.19,0,3.29.06.46,0,.92-.05,1.38-.05.74,0,1.48.05,2.22.08.17,0,.2,0,.19-.2-.07-1,0-2.09,0-3.13,0-.65-.06-1.3,0-1.95s0-1.3,0-1.94c0-.18,0-.36.21-.45s.19,0,.17.1a6.34,6.34,0,0,0,0,1.57c0,.44,0,.88,0,1.31,0,.88,0,1.77-.07,2.65l0,1.79c0,.15,0,.23.21.22a7.91,7.91,0,0,1,1.54,0c.37,0,.76,0,1.13,0,.77.05,1.54,0,2.31,0s1.34,0,2,0c.18,0,.37,0,.46.21s0,.18-.1.16c-.81-.1-1.61.1-2.42.08-.5,0-1,0-1.51,0-.83,0-1.67,0-2.51-.06a8.61,8.61,0,0,0-.88,0c-.11,0-.16,0-.14.18a11.37,11.37,0,0,1,0,2.18,15.29,15.29,0,0,0,0,2.44c0,.52,0,1,0,1.56,0,.32,0,.64,0,1,0,.12,0,.24,0,.36a.05.05,0,0,1-.06.06C8.08,16.19,8,16.19,7.94,16.09Z"/></g></g></svg>